<svg width="1000" height="1000" xmlns="http://www.w3.org/2000/svg">
  <defs>
    <!-- Grid pattern -->
    <pattern id="grid" width="50" height="50" patternUnits="userSpaceOnUse">
      <path d="M 50 0 L 0 0 0 50" fill="none" stroke="rgba(0,229,255,0.1)" stroke-width="0.5"/>
    </pattern>
    
    <!-- Glow filter for nodes -->
    <filter id="glow" x="-50%" y="-50%" width="200%" height="200%">
      <feGaussianBlur stdDeviation="2.5" result="blur"/>
      <feMerge>
        <feMergeNode in="blur"/>
        <feMergeNode in="SourceGraphic"/>
      </feMerge>
    </filter>
  </defs>
  
  <!-- Background rectangle with grid pattern -->
  <rect width="100%" height="100%" fill="url(#grid)" />
  
  <!-- Neural network nodes and connections -->
  <!-- Layer 1 nodes -->
  <circle cx="200" cy="200" r="4" fill="#00E5FF" filter="url(#glow)" opacity="0.7"/>
  <circle cx="200" cy="400" r="4" fill="#00E5FF" filter="url(#glow)" opacity="0.7"/>
  <circle cx="200" cy="600" r="4" fill="#00E5FF" filter="url(#glow)" opacity="0.7"/>
  <circle cx="200" cy="800" r="4" fill="#00E5FF" filter="url(#glow)" opacity="0.7"/>
  
  <!-- Layer 2 nodes -->
  <circle cx="500" cy="250" r="4" fill="#0099FF" filter="url(#glow)" opacity="0.7"/>
  <circle cx="500" cy="450" r="4" fill="#0099FF" filter="url(#glow)" opacity="0.7"/>
  <circle cx="500" cy="650" r="4" fill="#0099FF" filter="url(#glow)" opacity="0.7"/>
  
  <!-- Layer 3 nodes -->
  <circle cx="800" cy="300" r="4" fill="#9D4EDD" filter="url(#glow)" opacity="0.7"/>
  <circle cx="800" cy="500" r="4" fill="#9D4EDD" filter="url(#glow)" opacity="0.7"/>
  <circle cx="800" cy="700" r="4" fill="#9D4EDD" filter="url(#glow)" opacity="0.7"/>
  
  <!-- Connections from layer 1 to layer 2 -->
  <line x1="200" y1="200" x2="500" y2="250" stroke="rgba(0,229,255,0.2)" stroke-width="1"/>
  <line x1="200" y1="200" x2="500" y2="450" stroke="rgba(0,229,255,0.1)" stroke-width="1"/>
  <line x1="200" y1="200" x2="500" y2="650" stroke="rgba(0,229,255,0.1)" stroke-width="1"/>
  
  <line x1="200" y1="400" x2="500" y2="250" stroke="rgba(0,229,255,0.1)" stroke-width="1"/>
  <line x1="200" y1="400" x2="500" y2="450" stroke="rgba(0,229,255,0.2)" stroke-width="1"/>
  <line x1="200" y1="400" x2="500" y2="650" stroke="rgba(0,229,255,0.1)" stroke-width="1"/>
  
  <line x1="200" y1="600" x2="500" y2="250" stroke="rgba(0,229,255,0.1)" stroke-width="1"/>
  <line x1="200" y1="600" x2="500" y2="450" stroke="rgba(0,229,255,0.1)" stroke-width="1"/>
  <line x1="200" y1="600" x2="500" y2="650" stroke="rgba(0,229,255,0.2)" stroke-width="1"/>
  
  <line x1="200" y1="800" x2="500" y2="250" stroke="rgba(0,229,255,0.1)" stroke-width="1"/>
  <line x1="200" y1="800" x2="500" y2="450" stroke="rgba(0,229,255,0.1)" stroke-width="1"/>
  <line x1="200" y1="800" x2="500" y2="650" stroke="rgba(0,229,255,0.2)" stroke-width="1"/>
  
  <!-- Connections from layer 2 to layer 3 -->
  <line x1="500" y1="250" x2="800" y2="300" stroke="rgba(9,153,255,0.2)" stroke-width="1"/>
  <line x1="500" y1="250" x2="800" y2="500" stroke="rgba(9,153,255,0.1)" stroke-width="1"/>
  <line x1="500" y1="250" x2="800" y2="700" stroke="rgba(9,153,255,0.1)" stroke-width="1"/>
  
  <line x1="500" y1="450" x2="800" y2="300" stroke="rgba(9,153,255,0.1)" stroke-width="1"/>
  <line x1="500" y1="450" x2="800" y2="500" stroke="rgba(9,153,255,0.2)" stroke-width="1"/>
  <line x1="500" y1="450" x2="800" y2="700" stroke="rgba(9,153,255,0.1)" stroke-width="1"/>
  
  <line x1="500" y1="650" x2="800" y2="300" stroke="rgba(9,153,255,0.1)" stroke-width="1"/>
  <line x1="500" y1="650" x2="800" y2="500" stroke="rgba(9,153,255,0.1)" stroke-width="1"/>
  <line x1="500" y1="650" x2="800" y2="700" stroke="rgba(9,153,255,0.2)" stroke-width="1"/>
  
  <!-- Animated elements -->
  <circle cx="350" cy="350" r="2" fill="#00E5FF" opacity="0.9">
    <animate attributeName="cx" from="200" to="500" dur="4s" repeatCount="indefinite" />
    <animate attributeName="cy" from="400" to="450" dur="4s" repeatCount="indefinite" />
  </circle>
  
  <circle cx="650" cy="450" r="2" fill="#0099FF" opacity="0.9">
    <animate attributeName="cx" from="500" to="800" dur="3s" repeatCount="indefinite" />
    <animate attributeName="cy" from="450" to="500" dur="3s" repeatCount="indefinite" />
  </circle>
  
  <circle cx="350" cy="550" r="2" fill="#00E5FF" opacity="0.9">
    <animate attributeName="cx" from="200" to="500" dur="5s" repeatCount="indefinite" />
    <animate attributeName="cy" from="600" to="650" dur="5s" repeatCount="indefinite" />
  </circle>
</svg>